<?xml version="1.0" encoding="utf-8"?>
<!-- Generator: Adobe Illustrator 27.5.0, SVG Export Plug-In . SVG Version: 6.00 Build 0)  -->
<svg version="1.1" xmlns="http://www.w3.org/2000/svg" xmlns:xlink="http://www.w3.org/1999/xlink" x="0px" y="0px"
	 viewBox="0 0 500 500" style="enable-background:new 0 0 500 500;" xml:space="preserve">
<g id="BACKGROUND">
	<rect style="fill:#F0FCFF;" width="500" height="500"/>
</g>
<g id="OBJECTS">
	<g>
		<g>
			<g>
				<path style="fill:#4FD2FF;" d="M85.147,408.096c0,0-58.17-79.496-25.657-130.744c32.513-51.248,69.326-18.382,116.988-61.973
					c83.542-76.406,206.586-90.46,243.559-17.579c46.254,91.176-42.883,210.296-42.883,210.296l-103.844-5.843L85.147,408.096z"/>
				<g>
					
						<linearGradient id="SVGID_1_" gradientUnits="userSpaceOnUse" x1="133.1646" y1="299.0391" x2="-8.6893" y2="189.6212" gradientTransform="matrix(-1 0 0 1 293.8361 0)">
						<stop  offset="9.415100e-04" style="stop-color:#FFB180"/>
						<stop  offset="0.1183" style="stop-color:#FFB88A"/>
						<stop  offset="0.3768" style="stop-color:#FFC49C"/>
						<stop  offset="0.6578" style="stop-color:#FFCBA6"/>
						<stop  offset="1" style="stop-color:#FFCDA9"/>
					</linearGradient>
					<path style="fill:url(#SVGID_1_);" d="M146.167,282.709c0,0,64.644-11.489,97.275-63.301l9.418-19.083l36.991-19.465
						c0,0,5.846,6.657-20.538,19.684l5.791,7.013l-2.906,14.461l-14.945,6.475l-2.005,4.457l-0.193-0.221
						c-8.209,14.593-33.294,69.535-113.111,85.874C141.944,318.602,132.292,306.121,146.167,282.709z"/>
					<polyline style="fill:#FFA980;" points="243.441,219.408 260.8,226.956 257.253,228.492 256.125,230.999 					"/>
					<polyline style="fill:#FFFFFF;" points="237.945,226.359 243.441,219.408 259.361,231.79 252.48,241.423 					"/>
					<path style="fill:#130C28;" d="M158.682,277.178c0,0,53.919-11.625,78.15-51.76l18.552,15.682c0,0-37.504,58.554-83.058,69.764
						c-24.086-13.89-27.497-24.114-27.497-24.114"/>
					<g>
						<g>
							<g>
								<path style="fill:#131C4D;" d="M163.705,290.047c0,0,12.615,5.818,16.989,26.814c2.944,14.129,2.443,37.066,2.443,77.18
									H92.853c0,0-9.339-52.29,0.885-88.442c2.166-7.658,26.24-21.973,37.022-24.719l4.159,12.359l7.832,14.628l13.254,3.541
									l5.992-13.678"/>
								<path style="fill:#133A77;" d="M174.771,316.862l-5.187-5.465l4.347-1.389c-3.073-12.939-8.404-19.449-13.202-22.721
									c0.042,0.236,0.075,0.475,0.1,0.715c0.127,1.243,0.217,2.489,0.315,3.733c0.264,0.758,0.411,1.547,0.386,2.3
									c-0.014,0.438-0.066,0.876-0.128,1.313c0.317,5.261,0.452,10.529,0.549,15.804c0.093,5.062-4.092,7.384-8.001,6.989
									l0.933,9.316l10.668,45.21C178.985,355.551,174.771,316.862,174.771,316.862z"/>
								<path style="fill:#FFB097;" d="M131.087,262.44l0.27,34.219c0,0,9.717,10.879,29.796,15.347l-0.122-26.888L131.087,262.44z"
									/>
								<g>
									<path style="fill:#131637;" d="M189.761,209.205c-1.093-0.305-51.335-25.818-68.012,0.473c0,0-24.295,19.103-3.181,45.559
										l6.509,8.807l5.498,0.623l6.008,7.536l12.004-31.569l27.295-14.154C168.757,217.485,173.151,227.877,189.761,209.205z"/>
									<path style="fill:#FFCDA9;" d="M176.969,225.918l-4.269,61.112c0,0-37.054,11.866-44.701-21.402
										c0,0-15.733-6.855-9.366-17.402c0.977-1.62,3.921-2.357,6.247-1.998c2.084,0.322,4.208,1.881,5.285,3.647
										c2.154,3.533,1.646,7.284,1.646,7.284s2.886-4.329,3.266-17.026c0,0,10.836-4.685,8.882-15.203
										c0,0,11.635,1.873,16.85-2.546C160.809,222.385,168.275,227.691,176.969,225.918z"/>
									<path style="fill:#FFA980;" d="M160.809,222.384c-5.215,4.419-16.85,2.546-16.85,2.546
										c0.339,1.826,0.287,3.471-0.021,4.952c7.814,6.036,18.179,3.949,18.179,3.949l-5.09-5.899
										c7.186,4.282,14.278,5.066,19.465,4.825l0.478-6.839C168.275,227.691,160.809,222.384,160.809,222.384z"/>
									<g>
										<path style="fill:#130C28;" d="M156.945,249.126c-0.732,0-1.325-0.594-1.325-1.325c0-1.239-1.008-2.247-2.246-2.247
											c-1.239,0-2.247,1.008-2.247,2.247c0,0.732-0.593,1.325-1.325,1.325s-1.325-0.594-1.325-1.325
											c0-2.701,2.197-4.897,4.897-4.897c2.7,0,4.897,2.197,4.897,4.897C158.27,248.532,157.677,249.126,156.945,249.126z"/>
									</g>
									<g>
										<path style="fill:#130C28;" d="M174.601,249.126c-0.732,0-1.325-0.594-1.325-1.325c0-1.239-1.008-2.247-2.246-2.247
											c-1.239,0-2.247,1.008-2.247,2.247c0,0.732-0.593,1.325-1.325,1.325c-0.732,0-1.325-0.594-1.325-1.325
											c0-2.701,2.197-4.897,4.897-4.897c2.7,0,4.897,2.197,4.897,4.897C175.926,248.532,175.333,249.126,174.601,249.126z"/>
									</g>
									<g>
										<path style="fill:#130C28;" d="M175.802,240.402c0.293-0.026,0.582-0.131,0.835-0.32c0.728-0.544,0.877-1.574,0.334-2.302
											c-0.143-0.192-3.587-4.692-10.589-4.309c-0.889,0.02-1.602,0.825-1.553,1.733c0.049,0.908,0.825,1.602,1.732,1.553
											c5.261-0.288,7.749,2.959,7.773,2.991C174.689,240.223,175.252,240.451,175.802,240.402z"/>
									</g>
									<g>
										<path style="fill:#130C28;" d="M146.325,240.402c-0.293-0.026-0.582-0.131-0.835-0.32
											c-0.728-0.544-0.877-1.574-0.334-2.302c0.143-0.192,3.587-4.692,10.589-4.309c0.889,0.02,1.603,0.825,1.553,1.733
											c-0.049,0.908-0.825,1.602-1.732,1.553c-5.261-0.288-7.749,2.959-7.773,2.991
											C147.437,240.223,146.875,240.451,146.325,240.402z"/>
									</g>
									<path style="fill:#131637;" d="M189.761,209.205c0,0-2.751,8.53-13.092,10.591l7.922,4.588c0,0-12.633,6.968-27.724,1.033
										l5.978,4.997c0,0-12.127,4.587-21.32-2.766c-8.375-6.699-2.867-22.124-2.867-22.124l8.497-6.596L189.761,209.205z"/>
									<g>
										<path style="fill:#002848;" d="M113.945,249.73c0.065-0.003,0.125-0.02,0.184-0.05l6.048-3.246l25.332-1.632
											c0.238-0.015,0.417-0.22,0.402-0.458c-0.015-0.237-0.216-0.415-0.452-0.404c-0.003,0-0.003,0-0.006,0l-25.426,1.636
											c-0.061,0.003-0.12,0.022-0.176,0.049l-6.131,3.29c-0.211,0.115-0.289,0.376-0.178,0.586
											C113.625,249.655,113.784,249.738,113.945,249.73z"/>
									</g>
									<polygon style="fill:#FF7588;" points="163.055,244.385 171.029,261.964 161.35,261.964 									"/>
									<path style="fill:#FFB097;" d="M172.584,267.254c-0.082-0.125-0.216-0.205-0.365-0.22l-24.612-2.326
										c-0.141-0.013-0.28,0.034-0.382,0.13c-0.103,0.097-0.159,0.232-0.156,0.373c0.003,0.11,0.435,11.074,10.067,12.465
										c0.777,0.112,1.518,0.164,2.227,0.164c9.824,0,13.24-10.056,13.276-10.165C172.686,267.535,172.665,267.38,172.584,267.254
										z"/>
									<path style="fill:#130C28;" d="M147.561,265.199l24.612,2.325c0,0-3.698,11.295-14.966,9.667
										C147.871,275.843,147.561,265.199,147.561,265.199z"/>
								</g>
							</g>
						</g>
						<g>
							<path style="fill:#002848;" d="M166.615,246.689c-0.209-4.277,3.102-7.926,7.379-8.135c4.276-0.209,7.928,3.099,8.138,7.375
								c0.209,4.276-3.102,7.929-7.378,8.138C170.476,254.276,166.824,250.965,166.615,246.689z M167.476,246.647
								c0.186,3.802,3.433,6.745,7.235,6.559c3.801-0.186,6.745-3.432,6.559-7.234c-0.186-3.802-3.433-6.742-7.235-6.556
								C170.234,239.601,167.29,242.845,167.476,246.647z"/>
						</g>
						<g>
							<path style="fill:#002848;" d="M145.148,246.396c-0.209-4.276,3.102-7.929,7.379-8.138c4.276-0.209,7.929,3.102,8.138,7.378
								c0.21,4.277-3.102,7.926-7.378,8.136C149.01,253.982,145.358,250.673,145.148,246.396z M146.01,246.354
								c0.186,3.801,3.432,6.742,7.235,6.556c3.802-0.186,6.745-3.43,6.558-7.231c-0.186-3.801-3.432-6.745-7.234-6.559
								C148.767,239.305,145.824,242.553,146.01,246.354z"/>
						</g>
						<g>
							<path style="fill:#002848;" d="M167.233,244.231l0.45-0.738c-4.495-2.73-7.921,0.384-7.956,0.416l0.588,0.633
								C160.435,244.433,163.306,241.848,167.233,244.231z"/>
						</g>
						<path style="fill:#133A77;" d="M131.224,279.85c0,0-11.288,4.101-11.246,31.559h6.775l-2.546,5.452
							c0,0,14.59,46.214,41.343,55.805l-14.798-46.838"/>
						<path style="fill:#C3DEFF;" d="M126.754,290.105c0,0,7.847,42.203,38.798,82.562l2.637-56.813l-11.89-5.104"/>
						<path style="fill:#FF840D;" d="M159.124,320.456l-4.888,0.534c0,0-4.588,11.826-2.11,31.869
							c3.9,6.523,8.35,13.19,13.426,19.808l1.039-22.388C166.029,341.065,164.107,330.275,159.124,320.456z"/>
						<polygon style="fill:#FFB40D;" points="157.41,323.825 165.561,314.563 156.299,310.769 147.037,314.563 						"/>
						<path style="fill:#FFFFFF;" d="M156.299,310.75l-13.795,6.111c0,0-25.893-24.741-11.279-37.012
							C131.224,279.85,136.911,295.245,156.299,310.75z"/>
						<path style="fill:#FFFFFF;" d="M160.312,299.292l-4.013,11.458l11.89,5.104c0,0-0.791-10.042-7.126-23.733L160.312,299.292z"
							/>
					</g>
					<polygon style="fill:#FE7900;" points="322.102,266.322 338.279,266.322 322.102,246.335 					"/>
					
						<ellipse transform="matrix(0.2328 -0.9725 0.9725 0.2328 -11.479 484.2055)" style="fill:#FEA500;" cx="301.154" cy="249.378" rx="30.536" ry="30.536"/>
					<g>
						<path style="fill:#FEC500;" d="M305.687,257.598l-5.894-5.894c-0.624-0.623-0.624-1.644,0-2.267l0.093-0.093
							c0.623-0.623,1.644-0.623,2.267,0l5.894,5.894c0.623,0.623,0.623,1.644,0,2.267l-0.093,0.093
							C307.331,258.221,306.31,258.221,305.687,257.598z"/>
						<path style="fill:#FEE200;" d="M301.551,233.898c-4.644-4.644-12.172-4.644-16.816,0c-4.644,4.644-4.643,12.172,0,16.816
							c4.644,4.643,12.172,4.644,16.816,0C306.195,246.07,306.195,238.542,301.551,233.898z M287.805,247.644
							c-2.948-2.948-2.948-7.729,0-10.677s7.729-2.948,10.677,0c2.948,2.948,2.948,7.729,0,10.677
							C295.533,250.593,290.753,250.593,287.805,247.644z"/>
						<path style="fill:#FEE200;" d="M311.718,265.96l-8.041-8.041c-1.342-1.342-1.342-3.537,0-4.879l0.2-0.2
							c1.342-1.342,3.537-1.342,4.879,0l8.041,8.041c1.342,1.342,1.342,3.537,0,4.879l-0.2,0.2
							C315.256,267.302,313.06,267.302,311.718,265.96z"/>
					</g>
					<polygon style="fill:#060EC8;" points="304.173,220.818 304.173,230.415 316.03,220.818 					"/>
					<circle style="fill:#078CFF;" cx="317.745" cy="208.58" r="19.312"/>
					
						<text transform="matrix(1 0 0 1 308.5752 220.8185)" style="fill:#0760FF; font-family:'Quicksand-Bold'; font-size:35.545px;">?</text>
					<path style="fill:#D6F1FF;" d="M360.193,378.149H228.411c-7.662,0-13.872-6.211-13.872-13.872v-80.903
						c0-7.661,6.211-13.872,13.872-13.872h131.782c7.661,0,13.872,6.211,13.872,13.872v80.903
						C374.066,371.938,367.855,378.149,360.193,378.149z"/>
					<path style="fill:#0C314D;" d="M342.958,374.061c0,0.38,0.308,0.688,0.688,0.688c0.38,0,0.688-0.308,0.688-0.688
						c0-0.38-0.308-0.688-0.688-0.688C343.266,373.373,342.958,373.681,342.958,374.061z"/>
					<path style="fill:#0C314D;" d="M338.915,374.061c0,0.38,0.308,0.688,0.688,0.688c0.38,0,0.688-0.308,0.688-0.688
						c0-0.38-0.308-0.688-0.688-0.688C339.223,373.373,338.915,373.681,338.915,374.061z"/>
					<path style="fill:#FF5988;" d="M171.029,261.964h-9.679C161.35,261.964,167.691,256.854,171.029,261.964z"/>
					
						<linearGradient id="SVGID_00000151514527859062748320000003243231730184719030_" gradientUnits="userSpaceOnUse" x1="262.778" y1="404.1761" x2="233.647" y2="381.7062">
						<stop  offset="9.415100e-04" style="stop-color:#FFB180"/>
						<stop  offset="0.1183" style="stop-color:#FFB88A"/>
						<stop  offset="0.3768" style="stop-color:#FFC49C"/>
						<stop  offset="0.6578" style="stop-color:#FFCBA6"/>
						<stop  offset="1" style="stop-color:#FFCDA9"/>
					</linearGradient>
					<polyline style="fill:url(#SVGID_00000151514527859062748320000003243231730184719030_);" points="231.837,385.628 
						253.569,381.706 273.279,391.089 275.605,396.549 225.423,396.549 					"/>
					<rect x="225.509" y="385.628" style="fill:#FFFFFF;" width="6.327" height="10.921"/>
					<path style="fill:#130C28;" d="M93.738,305.6c5.921-8.834,20.088-12.274,30.339,18.99
						c12.364,37.71,29.828,59.214,101.461,57.321l-0.116,14.638c0,0-97.286,28.574-128.508-42.199
						C91.235,342.901,84.375,318.212,93.738,305.6z"/>
					<path style="fill:#FEDB75;" d="M377.153,408.096H85.147v-0.555c0-7.455,6.044-13.499,13.499-13.499h265.008
						c7.456,0,13.499,6.044,13.499,13.499V408.096z"/>
					<path style="fill:#FFFFFF;" d="M147.561,265.199c0,0,0.088,2.921,1.511,5.897l19.728,1.996
						c2.416-2.655,3.373-5.568,3.373-5.568L147.561,265.199z"/>
					<path style="fill:#D0EAFF;" d="M147.796,267.098c4.242-0.817,14.859-2.154,23.384,2.617c0.691-1.274,0.993-2.191,0.993-2.191
						l-24.612-2.325C147.561,265.199,147.585,265.96,147.796,267.098z"/>
					<rect x="275.605" y="391.836" style="fill:#BBD2FF;" width="33.495" height="2.206"/>
					<path style="fill:#FFFFFF;" d="M301.343,353.581c-0.143-1.476-1.383-2.603-2.867-2.603h-12.073
						c-1.483,0-2.724,1.126-2.867,2.603l-3.913,40.461h25.632L301.343,353.581z M292.353,371.257c-1.946,0-3.523-1.577-3.523-3.523
						c0-1.946,1.577-3.523,3.523-3.523c1.946,0,3.523,1.577,3.523,3.523C295.876,369.68,294.299,371.257,292.353,371.257z"/>
					<rect x="347.707" y="368.091" style="fill:#97B9D6;" width="1.958" height="6.658"/>
					<rect x="357.025" y="368.091" style="fill:#0C314D;" width="1.958" height="6.658"/>
					<rect x="360.016" y="368.091" style="fill:#0C314D;" width="1.958" height="6.658"/>
					<rect x="351.273" y="368.091" style="fill:#97B9D6;" width="0.741" height="6.658"/>
					<circle style="fill:#F5FFFF;" cx="229.928" cy="364.211" r="4.264"/>
					<path style="fill:#B8D4FF;" d="M233.808,364.211c0,2.143-1.737,3.88-3.88,3.88c-2.143,0-3.88-1.737-3.88-3.88
						s1.737-3.88,3.88-3.88C232.071,360.33,233.808,362.068,233.808,364.211z"/>
					
						<ellipse transform="matrix(0.9735 -0.2287 0.2287 0.9735 -54.802 34.628)" style="fill:#133A77;" cx="122.017" cy="253.782" rx="10.925" ry="10.925"/>
					<g>
						<path style="fill:#FFFFFF;" d="M117.648,253.542c-1.054-0.004-1.963-0.792-2.084-1.856c-0.1-0.876-2.287-21.633,10.914-37.878
							c6.532-8.037,15.368-13.345,27.017-15.601c5.297-1.026,7.884-1.036,9.638-0.266c2.98,1.309,2.191,1.585,2.247,2.407
							c-15.313,1.538-27.998,6.69-35.628,16.08c-12.118,14.911-10.038,34.608-10.015,34.806c0.13,1.143-0.699,2.171-1.851,2.296
							C117.806,253.538,117.726,253.542,117.648,253.542z"/>
					</g>
					<circle style="fill:#FFB40D;" cx="119.286" cy="253.781" r="9.342"/>
					<circle style="fill:#FFEA1D;" cx="117.632" cy="253.781" r="6.47"/>
					<circle style="fill:#133A77;" cx="117.632" cy="253.781" r="3.169"/>
					<g>
						<path style="fill:#FFFFFF;" d="M152.266,280.155c-0.007-0.001-0.014-0.002-0.021-0.002
							c-16.806-2.182-25.54-9.059-29.907-14.445c-4.785-5.9-5.52-11.255-5.549-11.479c-0.07-0.547,0.316-1.048,0.863-1.119
							c0.543-0.071,1.047,0.315,1.118,0.861l0,0c0.007,0.051,0.724,5.106,5.2,10.577c4.144,5.063,12.457,11.536,28.532,13.623
							c0.547,0.071,0.933,0.573,0.862,1.119C153.294,279.83,152.805,280.214,152.266,280.155z"/>
					</g>
					<path style="fill:#FFB40D;" d="M156.591,281.803l-4.21-0.618c-1.005-0.147-1.706-1.09-1.559-2.095l0.022-0.15
						c0.148-1.005,1.09-1.706,2.095-1.559l4.21,0.618c1.005,0.147,1.706,1.09,1.559,2.095l-0.022,0.15
						C158.539,281.249,157.596,281.951,156.591,281.803z"/>
				</g>
				<polygon style="fill:#FE9900;" points="361.75,253.722 345.573,253.722 361.75,233.736 				"/>
				
					<ellipse transform="matrix(0.2362 -0.9717 0.9717 0.2362 85.3698 547.4205)" style="fill:#FEBA00;" cx="390.891" cy="219.408" rx="45.319" ry="45.319"/>
				<polygon style="fill:#0743F4;" points="393.331,286.645 377.153,286.645 393.331,306.632 				"/>
				
					<ellipse transform="matrix(0.7071 -0.7071 0.7071 0.7071 -99.146 384.6519)" style="fill:#0760FF;" cx="414.743" cy="312.006" rx="34.312" ry="34.312"/>
				<g>
					<polygon style="fill:#FEAB00;" points="176.9,177.977 176.9,194.154 196.887,177.977 					"/>
					<path style="fill:#FEDB00;" d="M270.889,180.173h-89.684c-13.255,0-24-10.745-24-24v-1.971c0-13.255,10.745-24,24-24h89.684
						c13.255,0,24,10.745,24,24v1.971C294.889,169.428,284.144,180.173,270.889,180.173z"/>
					<g>
						
							<ellipse transform="matrix(0.7071 -0.7071 0.7071 0.7071 -57.3178 171.9981)" style="fill:#FEFF55;" cx="178.961" cy="155.188" rx="7.932" ry="7.932"/>
						
							<ellipse transform="matrix(0.7071 -0.7071 0.7071 0.7071 -50.1643 189.2681)" style="fill:#FEFF55;" cx="203.385" cy="155.188" rx="7.932" ry="7.932"/>
						
							<ellipse transform="matrix(0.229 -0.9734 0.9734 0.229 24.5812 341.4096)" style="fill:#FEFF55;" cx="227.808" cy="155.188" rx="7.932" ry="7.932"/>
						
							<ellipse transform="matrix(0.7477 -0.664 0.664 0.7477 -39.6166 206.1015)" style="fill:#FEFF55;" cx="251.429" cy="155.188" rx="7.932" ry="7.932"/>
					</g>
				</g>
			</g>
			<g>
				<path style="fill:#FEBA00;" d="M432.447,305.246c0,16.549-17.832,29.831-17.832,29.831s-17.832-10.887-17.832-29.831
					c0-9.848,7.983-17.832,17.832-17.832C424.463,287.415,432.447,295.398,432.447,305.246z"/>
				<circle style="fill:#FEA200;" cx="414.615" cy="305.246" r="15.421"/>
				<circle style="fill:#FEC400;" cx="414.615" cy="305.246" r="7.661"/>
			</g>
			<path style="fill:#FED100;" d="M381.821,228.717v-6.161c0.96-0.295,1.878-0.682,2.751-1.145l4.361,4.361l6.601-6.601
				l-4.361-4.361c0.463-0.872,0.85-1.791,1.145-2.751h6.161v-9.335h-6.161c-0.295-0.96-0.682-1.878-1.145-2.751l4.361-4.361
				l-6.601-6.601l-4.361,4.361c-0.873-0.463-1.791-0.85-2.751-1.145v-6.161h-9.335v6.161c-0.96,0.295-1.878,0.682-2.751,1.145
				l-4.361-4.361l-6.601,6.601l4.361,4.361c-0.463,0.872-0.85,1.791-1.145,2.751h-6.161v9.335h6.161
				c0.295,0.96,0.682,1.878,1.145,2.751l-4.361,4.361l6.601,6.601l4.361-4.361c0.872,0.463,1.791,0.85,2.751,1.145v6.161H381.821z
				 M367.736,206.157c0.533-4.232,3.95-7.649,8.182-8.183c6.211-0.783,11.435,4.44,10.652,10.652
				c-0.534,4.232-3.951,7.649-8.183,8.182C372.177,217.59,366.954,212.368,367.736,206.157z M425.76,210.826v-4.492h-2.965
				c-0.142-0.462-0.328-0.904-0.551-1.324l2.099-2.099l-3.177-3.176l-2.098,2.098c-0.42-0.223-0.862-0.409-1.324-0.551v-2.965
				h-4.492v2.965c-0.462,0.142-0.904,0.328-1.324,0.551l-2.098-2.098l-3.177,3.176l2.099,2.099c-0.223,0.42-0.409,0.862-0.551,1.324
				h-2.965v4.492h2.965c0.142,0.462,0.328,0.904,0.551,1.324l-2.099,2.098l3.177,3.177l2.098-2.099
				c0.42,0.223,0.862,0.409,1.324,0.551v2.965h4.492v-2.965c0.462-0.142,0.904-0.328,1.324-0.551l2.098,2.099l3.177-3.177
				l-2.099-2.098c0.223-0.42,0.409-0.862,0.551-1.324H425.76z M420.029,209.174c-0.257,2.036-1.901,3.681-3.938,3.937
				c-2.989,0.376-5.502-2.137-5.126-5.125c0.257-2.036,1.901-3.681,3.937-3.938C417.892,203.671,420.406,206.185,420.029,209.174z
				 M389.282,246.775l2.75-2.75l-1.816-1.816c0.193-0.364,0.354-0.746,0.477-1.146h2.566v-3.888h-2.566
				c-0.123-0.4-0.284-0.782-0.477-1.146l1.816-1.816l-2.75-2.75l-1.816,1.816c-0.364-0.193-0.746-0.354-1.146-0.477v-2.566h-3.888
				v2.566c-0.4,0.123-0.782,0.284-1.146,0.477l-1.816-1.816l-2.75,2.75l1.816,1.816c-0.193,0.363-0.354,0.746-0.477,1.146h-2.566
				v3.888h2.566c0.123,0.4,0.284,0.782,0.477,1.146l-1.816,1.816l2.75,2.75l1.816-1.816c0.363,0.193,0.746,0.354,1.146,0.477v2.566
				h3.888v-2.566c0.4-0.123,0.782-0.284,1.146-0.477L389.282,246.775z M384.889,243.042c-2.587,0.326-4.762-1.849-4.437-4.436
				c0.222-1.763,1.645-3.186,3.408-3.409c2.587-0.326,4.763,1.85,4.437,4.437C388.076,241.397,386.652,242.82,384.889,243.042z
				 M364.259,237.778l0.788-0.788l-1.193-1.194l-0.788,0.789c-0.158-0.084-0.324-0.154-0.497-0.207v-1.114h-1.688v1.114
				c-0.174,0.053-0.34,0.123-0.497,0.207l-0.788-0.789l-1.193,1.194l0.788,0.788c-0.084,0.158-0.154,0.324-0.207,0.497h-1.114v1.688
				h1.114c0.053,0.174,0.123,0.34,0.207,0.497l-0.788,0.788l1.193,1.193l0.788-0.788c0.158,0.083,0.324,0.154,0.497,0.207v1.114
				h1.688v-1.114c0.173-0.053,0.34-0.124,0.497-0.207l0.788,0.788l1.193-1.193l-0.788-0.788c0.084-0.158,0.154-0.324,0.207-0.497
				h1.114v-1.688h-1.114C364.413,238.102,364.343,237.936,364.259,237.778z M363.427,239.343c-0.096,0.765-0.714,1.383-1.479,1.479
				c-1.123,0.141-2.067-0.803-1.926-1.926c0.096-0.765,0.714-1.383,1.479-1.479C362.624,237.275,363.569,238.22,363.427,239.343z
				 M396.972,255.345l1.155-1.155l-1.749-1.749l-1.155,1.155c-0.231-0.123-0.474-0.225-0.729-0.303v-1.632h-2.473v1.632
				c-0.254,0.078-0.497,0.181-0.729,0.303l-1.155-1.155l-1.749,1.749l1.155,1.155c-0.123,0.231-0.225,0.474-0.303,0.729h-1.632
				v2.473h1.632c0.078,0.254,0.181,0.498,0.303,0.729l-1.155,1.155l1.749,1.749l1.155-1.155c0.231,0.122,0.474,0.225,0.729,0.303
				v1.632h2.473v-1.632c0.254-0.078,0.498-0.181,0.729-0.303l1.155,1.155l1.749-1.749l-1.155-1.155
				c0.123-0.231,0.225-0.474,0.303-0.729h1.632v-2.473h-1.632C397.197,255.82,397.095,255.576,396.972,255.345z M395.753,257.638
				c-0.141,1.121-1.047,2.026-2.168,2.167c-1.645,0.207-3.029-1.176-2.821-2.821c0.141-1.121,1.046-2.026,2.167-2.168
				C394.576,254.608,395.96,255.992,395.753,257.638z M417.118,233.944l2.674-2.673l-4.047-4.047l-2.674,2.673
				c-0.535-0.284-1.098-0.521-1.686-0.702v-3.777h-5.723v3.777c-0.588,0.181-1.151,0.418-1.686,0.702l-2.673-2.673l-4.047,4.047
				l2.673,2.673c-0.284,0.535-0.521,1.098-0.702,1.687h-3.777v5.723h3.777c0.181,0.588,0.418,1.151,0.702,1.686l-2.673,2.673
				l4.047,4.047l2.673-2.673c0.535,0.284,1.098,0.521,1.686,0.702v3.777h5.723v-3.777c0.588-0.181,1.151-0.418,1.686-0.702
				l2.674,2.673l4.047-4.047l-2.674-2.673c0.284-0.535,0.521-1.098,0.702-1.686h3.777v-5.723h-3.777
				C417.639,235.042,417.401,234.479,417.118,233.944z M414.296,239.25c-0.327,2.594-2.422,4.689-5.017,5.016
				c-3.808,0.48-7.009-2.722-6.53-6.53c0.327-2.594,2.422-4.69,5.016-5.017C411.573,232.239,414.776,235.442,414.296,239.25z"/>
			
				<ellipse transform="matrix(0.987 -0.1609 0.1609 0.987 -19.5095 59.0776)" style="fill:#0760FF;" cx="354.965" cy="149.982" rx="29.61" ry="29.61"/>
			<g>
				<path style="fill:#07B4FF;" d="M348.648,169.161c-1.288,0-2.576-0.492-3.558-1.475l-9.369-9.368
					c-1.966-1.964-1.966-5.151-0.001-7.117c1.966-1.966,5.153-1.966,7.118,0l5.81,5.81l18.445-18.445
					c1.965-1.966,5.152-1.966,7.117,0c1.966,1.964,1.966,5.153,0,7.117l-22.003,22.003
					C351.224,168.67,349.935,169.161,348.648,169.161z"/>
			</g>
			<circle style="fill:#0731F6;" cx="400.386" cy="152.829" r="12.776"/>
			<g>
				<path style="fill:#FFFB2F;" d="M397.66,161.105c-0.556,0-1.112-0.212-1.535-0.636l-4.043-4.042
					c-0.848-0.848-0.848-2.223,0-3.071c0.848-0.848,2.224-0.848,3.071,0l2.507,2.507l7.958-7.958c0.848-0.848,2.223-0.848,3.071,0
					c0.848,0.848,0.848,2.223,0,3.071l-9.494,9.494C398.771,160.893,398.215,161.105,397.66,161.105z"/>
			</g>
			<polygon style="fill:#16D7CB;" points="301.154,122.857 302.71,128.646 308.499,130.202 302.71,131.758 301.154,137.546 
				299.599,131.758 293.81,130.202 299.599,128.646 			"/>
			<polygon style="fill:#16FCE9;" points="305.502,141.818 306.053,143.869 308.105,144.42 306.053,144.972 305.502,147.023 
				304.951,144.972 302.899,144.42 304.951,143.869 			"/>
			<path style="fill:#FEC000;" d="M270.889,130.202h-20.073c3.396,20.235,20.569,35.79,41.549,36.684
				c1.612-3.225,2.524-6.861,2.524-10.712v-1.972C294.889,140.947,284.144,130.202,270.889,130.202z"/>
			<circle style="fill:#130C28;" cx="285.149" cy="122.857" r="34.953"/>
			<circle style="fill:#B1DDFF;" cx="285.149" cy="122.857" r="31.673"/>
			
				<ellipse transform="matrix(0.2269 -0.9739 0.9739 0.2269 100.807 372.7011)" style="fill:#E9F6FF;" cx="285.149" cy="122.857" rx="29.809" ry="29.809"/>
			<path style="fill:#0760FF;" d="M285.296,120.649h-0.296c-1.979,0-3.598-1.619-3.598-3.598v-16.938
				c0-1.979,1.619-3.598,3.598-3.598h0.296c1.979,0,3.598,1.619,3.598,3.598v16.938C288.894,119.03,287.275,120.649,285.296,120.649
				z"/>
			<path style="fill:#FEDB00;" d="M301.84,139.764l-0.063,0.063c-0.421,0.421-1.111,0.421-1.532,0l-13.804-13.804
				c-0.421-0.421-0.421-1.111,0-1.532l0.063-0.063c0.421-0.421,1.111-0.421,1.532,0l13.804,13.804
				C302.261,138.653,302.261,139.343,301.84,139.764z"/>
			<circle style="fill:#130C28;" cx="285.149" cy="122.857" r="3.849"/>
			<g>
				<polygon style="fill:#A9F0FF;" points="446.16,181.156 447.103,184.663 450.61,185.606 447.103,186.548 446.16,190.056 
					445.218,186.548 441.71,185.606 445.218,184.663 				"/>
				<polygon style="fill:#A9F0FF;" points="443.555,230.999 444.497,234.507 448.005,235.449 444.497,236.392 443.555,239.9 
					442.612,236.392 439.104,235.449 442.612,234.507 				"/>
				<polygon style="fill:#A9F0FF;" points="49.613,145.474 51.168,151.263 56.957,152.818 51.168,154.374 49.613,160.163 
					48.057,154.374 42.268,152.818 48.057,151.263 				"/>
				<polygon style="fill:#A9F0FF;" points="103.492,181.221 104.434,184.728 107.942,185.671 104.434,186.613 103.492,190.121 
					102.549,186.613 99.042,185.671 102.549,184.728 				"/>
				<polygon style="fill:#A9F0FF;" points="395.448,99.21 397.004,104.999 402.793,106.554 397.004,108.11 395.448,113.899 
					393.892,108.11 388.103,106.554 393.892,104.999 				"/>
				<polygon style="fill:#A9F0FF;" points="443.555,155.775 445.11,161.564 450.899,163.12 445.11,164.676 443.555,170.465 
					441.999,164.676 436.21,163.12 441.999,161.564 				"/>
				<polygon style="fill:#A9F0FF;" points="352.233,104.999 353.175,108.506 356.683,109.449 353.175,110.391 352.233,113.899 
					351.29,110.391 347.783,109.449 351.29,108.506 				"/>
				<polygon style="fill:#A9F0FF;" points="77.802,206.607 78.353,208.658 80.405,209.21 78.353,209.761 77.802,211.813 
					77.251,209.761 75.199,209.21 77.251,208.658 				"/>
				<polygon style="fill:#A9F0FF;" points="122.017,177.571 122.568,179.622 124.619,180.173 122.568,180.725 122.017,182.776 
					121.465,180.725 119.414,180.173 121.465,179.622 				"/>
				<polygon style="fill:#A9F0FF;" points="102.017,161.209 102.422,162.715 103.928,163.12 102.422,163.525 102.017,165.031 
					101.612,163.525 100.106,163.12 101.612,162.715 				"/>
				<polygon style="fill:#A9F0FF;" points="421.597,174.089 422.148,176.141 424.2,176.692 422.148,177.243 421.597,179.295 
					421.046,177.243 418.994,176.692 421.046,176.141 				"/>
				<polygon style="fill:#A9F0FF;" points="415.497,171.486 416.048,173.538 418.1,174.089 416.048,174.64 415.497,176.692 
					414.946,174.64 412.895,174.089 414.946,173.538 				"/>
				<polygon style="fill:#A9F0FF;" points="100.889,219.782 101.44,221.833 103.492,222.385 101.44,222.936 100.889,224.987 
					100.338,222.936 98.286,222.385 100.338,221.833 				"/>
			</g>
		</g>
	</g>
</g>
<g id="DESIGNED_BY_FREEPIK">
	<g>
		<g id="XMLID_1_">
			<g id="XMLID_20_">
				<path id="XMLID_28_" style="fill:#FFFFFF;" d="M259.503,474.538c-0.432,0.443-0.803,0.931-1.108,1.453l-0.465-0.241
					c-0.067-0.298-0.349-0.503-0.659-0.466c-0.331,0.039-0.568,0.339-0.529,0.67c0.039,0.331,0.339,0.568,0.67,0.529
					c0.065-0.008,0.127-0.026,0.183-0.052l0.452,0.234c-0.251,0.554-0.433,1.139-0.539,1.744l0.747,0.132
					c0.23-1.306,0.85-2.507,1.792-3.473L259.503,474.538z"/>
				<path id="XMLID_27_" style="fill:#FFFFFF;" d="M264.99,472.236c-0.171,0-0.341,0.006-0.51,0.017l-0.074-0.626
					c0.187-0.149,0.296-0.389,0.266-0.645c-0.046-0.393-0.402-0.674-0.795-0.628c-0.393,0.046-0.674,0.402-0.628,0.795
					c0.03,0.254,0.189,0.461,0.405,0.564l0.073,0.624c-0.714,0.116-1.403,0.332-2.06,0.646l0.327,0.684
					c0.934-0.447,1.942-0.673,2.995-0.673c0.496,0,0.993,0.053,1.475,0.158l0.161-0.741
					C266.091,472.295,265.541,472.236,264.99,472.236z"/>
				<path id="XMLID_26_" style="fill:#FFFFFF;" d="M271.593,474.783c0.331-0.04,0.566-0.341,0.526-0.672
					c-0.04-0.331-0.341-0.566-0.672-0.526c-0.309,0.038-0.535,0.304-0.53,0.609l-0.416,0.363c-0.418-0.43-0.89-0.813-1.408-1.139
					l-0.404,0.641c1.134,0.715,2.021,1.726,2.563,2.925l0.691-0.313c-0.251-0.554-0.568-1.072-0.942-1.545l0.402-0.351
					C271.463,474.788,271.527,474.791,271.593,474.783z"/>
				<path id="XMLID_25_" style="fill:#FFFFFF;" d="M264.443,482.444c-0.386,0.023-0.775,0.035-1.157,0.035
					c-0.88,0-1.733-0.061-2.478-0.179c-0.39-0.062-0.846-0.155-1.27-0.292c1.046,1.861,3.069,3.125,5.388,3.125
					c2.855,0,5.262-1.916,5.95-4.504c-0.682,0.449-1.505,0.825-2.459,1.123C267.237,482.12,265.862,482.359,264.443,482.444z"/>
				<path id="XMLID_21_" style="fill:#FFFFFF;" d="M264.99,473.752c-3.352,0-6.08,2.666-6.08,5.943c0,0.426,0.046,0.849,0.137,1.261
					c0.673,0.483,2.706,0.89,5.348,0.731c2.879-0.173,5.297-0.957,6.672-2.159c-0.005-0.195-0.021-0.39-0.045-0.582
					C270.642,475.986,268.049,473.752,264.99,473.752z M262.831,480.267c-1.02,0-1.85-0.83-1.85-1.85c0-1.02,0.83-1.85,1.85-1.85
					c1.02,0,1.85,0.83,1.85,1.85C264.681,479.437,263.851,480.267,262.831,480.267z M267.568,479.359c-0.75,0-1.36-0.61-1.36-1.36
					s0.61-1.361,1.36-1.361c0.75,0,1.361,0.61,1.361,1.361S268.318,479.359,267.568,479.359z"/>
			</g>
			<path id="XMLID_18_" style="fill:#FFFFFF;" d="M280.994,475.619c-0.295-0.116-0.805-0.309-1.382-0.237
				c-0.551,0.069-0.844,0.341-0.844,1.007v0.866h2.228v1.717h-2.228v5.455h-1.932v-5.455h-1.34v-1.717h1.34v-0.888
				c0-1.68,0.896-2.783,2.568-2.783c0.643,0,1.157,0.122,1.59,0.308L280.994,475.619z"/>
			<path id="XMLID_16_" style="fill:#FFFFFF;" d="M285.696,478.951c-0.177-0.03-0.358-0.046-0.526-0.046
				c-0.896,0-1.51,0.548-1.51,1.613v3.908h-1.932v-7.172h1.873v0.785c0.451-0.673,1.14-0.977,2.021-0.977
				c0.414,0,0.848,0.128,1.094,0.337L285.696,478.951z"/>
			<path id="XMLID_13_" style="fill:#FFFFFF;" d="M293.364,480.829c0,0.222-0.015,0.489-0.037,0.651h-5.085
				c0.207,1.036,0.933,1.488,1.843,1.488c0.622,0,1.295-0.252,1.813-0.688l1.132,1.243c-0.814,0.748-1.85,1.088-3.057,1.088
				c-2.198,0-3.723-1.495-3.723-3.753c0-2.258,1.48-3.797,3.626-3.797C291.943,477.062,293.356,478.594,293.364,480.829z
				 M288.249,480.163h3.175c-0.177-0.918-0.733-1.436-1.562-1.436C288.952,478.727,288.419,479.275,288.249,480.163z"/>
			<path id="XMLID_10_" style="fill:#FFFFFF;" d="M301.017,480.829c0,0.222-0.015,0.489-0.037,0.651h-5.085
				c0.207,1.036,0.933,1.488,1.843,1.488c0.622,0,1.295-0.252,1.813-0.688l1.132,1.243c-0.814,0.748-1.85,1.088-3.057,1.088
				c-2.198,0-3.723-1.495-3.723-3.753c0-2.258,1.48-3.797,3.627-3.797C299.596,477.062,301.009,478.594,301.017,480.829z
				 M295.902,480.163h3.175c-0.178-0.918-0.733-1.436-1.562-1.436C296.606,478.727,296.073,479.275,295.902,480.163z"/>
			<path id="XMLID_7_" style="fill:#FFFFFF;" d="M309.362,480.837c0,2.154-1.495,3.775-3.471,3.775
				c-0.962,0-1.643-0.378-2.109-0.933v3.708h-1.924v-10.133h1.887v0.792c0.466-0.585,1.155-0.984,2.139-0.984
				C307.867,477.062,309.362,478.683,309.362,480.837z M303.686,480.837c0,1.132,0.748,1.976,1.843,1.976
				c1.14,0,1.85-0.881,1.85-1.976c0-1.095-0.71-1.976-1.85-1.976C304.433,478.861,303.686,479.704,303.686,480.837z"/>
			<path id="XMLID_4_" style="fill:#FFFFFF;" d="M312.466,474.908c0,0.696-0.54,1.229-1.236,1.229c-0.696,0-1.229-0.533-1.229-1.229
				c0-0.696,0.533-1.243,1.229-1.243C311.926,473.665,312.466,474.213,312.466,474.908z M312.207,484.427h-1.932v-7.172h1.932
				V484.427z"/>
			<path id="XMLID_2_" style="fill:#FFFFFF;" d="M315.431,479.808l2.701-2.554h2.368l-3.479,3.375l3.501,3.797h-2.376l-2.716-2.901
				v2.901h-1.932v-10.658h1.932V479.808z"/>
		</g>
		<g>
			<path style="fill:#FFFFFF;" d="M183.811,484.362v-1.055c-0.527,0.718-1.391,1.23-2.387,1.23c-1.846,0-3.149-1.406-3.149-3.706
				c0-2.256,1.289-3.721,3.149-3.721c0.952,0,1.816,0.469,2.387,1.245v-3.765h1.099v9.77H183.811z M183.811,482.443v-3.208
				c-0.395-0.615-1.245-1.143-2.124-1.143c-1.421,0-2.27,1.172-2.27,2.739c0,1.567,0.85,2.724,2.27,2.724
				C182.566,483.556,183.415,483.058,183.811,482.443z"/>
			<path style="fill:#FFFFFF;" d="M186.33,480.817c0-2.051,1.465-3.706,3.486-3.706c2.139,0,3.398,1.67,3.398,3.794v0.279h-5.727
				c0.088,1.333,1.025,2.446,2.549,2.446c0.805,0,1.626-0.322,2.182-0.894l0.527,0.718c-0.703,0.703-1.655,1.084-2.812,1.084
				C187.839,484.537,186.33,483.029,186.33,480.817z M189.802,478.019c-1.509,0-2.256,1.274-2.314,2.358h4.643
				C192.116,479.323,191.413,478.019,189.802,478.019z"/>
			<path style="fill:#FFFFFF;" d="M194.005,483.424l0.571-0.791c0.469,0.542,1.362,1.011,2.329,1.011c1.084,0,1.67-0.513,1.67-1.216
				c0-1.714-4.38-0.659-4.38-3.281c0-1.098,0.952-2.036,2.636-2.036c1.201,0,2.051,0.454,2.622,1.026l-0.513,0.762
				c-0.424-0.513-1.201-0.894-2.109-0.894c-0.967,0-1.567,0.483-1.567,1.113c0,1.552,4.38,0.527,4.38,3.281
				c0,1.187-0.952,2.138-2.783,2.138C195.705,484.537,194.723,484.186,194.005,483.424z"/>
			<path style="fill:#FFFFFF;" d="M200.875,475.544c0-0.41,0.337-0.747,0.732-0.747c0.41,0,0.747,0.337,0.747,0.747
				c0,0.41-0.337,0.732-0.747,0.732C201.212,476.276,200.875,475.954,200.875,475.544z M201.066,484.362v-7.075h1.099v7.075H201.066
				z"/>
			<path style="fill:#FFFFFF;" d="M203.98,486.178l0.556-0.82c0.586,0.703,1.289,0.967,2.3,0.967c1.172,0,2.27-0.571,2.27-2.124
				v-1.011c-0.513,0.718-1.377,1.26-2.373,1.26c-1.845,0-3.149-1.377-3.149-3.662c0-2.27,1.289-3.677,3.149-3.677
				c0.952,0,1.802,0.469,2.373,1.245v-1.069h1.098v6.87c0,2.344-1.641,3.076-3.369,3.076
				C205.635,487.233,204.815,486.998,203.98,486.178z M209.107,482.326v-3.091c-0.381-0.615-1.23-1.143-2.109-1.143
				c-1.421,0-2.27,1.128-2.27,2.695c0,1.553,0.849,2.695,2.27,2.695C207.877,483.483,208.726,482.941,209.107,482.326z"/>
			<path style="fill:#FFFFFF;" d="M216.812,484.362v-4.629c0-1.245-0.63-1.641-1.582-1.641c-0.865,0-1.685,0.527-2.095,1.099v5.17
				h-1.099v-7.075h1.099v1.025c0.498-0.586,1.465-1.201,2.519-1.201c1.48,0,2.256,0.747,2.256,2.285v4.966H216.812z"/>
			<path style="fill:#FFFFFF;" d="M219.331,480.817c0-2.051,1.465-3.706,3.486-3.706c2.138,0,3.398,1.67,3.398,3.794v0.279h-5.727
				c0.088,1.333,1.025,2.446,2.549,2.446c0.806,0,1.626-0.322,2.183-0.894l0.527,0.718c-0.703,0.703-1.655,1.084-2.812,1.084
				C220.84,484.537,219.331,483.029,219.331,480.817z M222.803,478.019c-1.509,0-2.256,1.274-2.314,2.358h4.643
				C225.117,479.323,224.414,478.019,222.803,478.019z"/>
			<path style="fill:#FFFFFF;" d="M232.748,484.362v-1.055c-0.527,0.718-1.392,1.23-2.388,1.23c-1.845,0-3.149-1.406-3.149-3.706
				c0-2.256,1.289-3.721,3.149-3.721c0.952,0,1.817,0.469,2.388,1.245v-3.765h1.098v9.77H232.748z M232.748,482.443v-3.208
				c-0.396-0.615-1.245-1.143-2.124-1.143c-1.421,0-2.27,1.172-2.27,2.739c0,1.567,0.849,2.724,2.27,2.724
				C231.503,483.556,232.353,483.058,232.748,482.443z"/>
			<path style="fill:#FFFFFF;" d="M239.09,484.362v-9.77h1.098v3.765c0.572-0.776,1.421-1.245,2.388-1.245
				c1.845,0,3.149,1.465,3.149,3.721c0,2.299-1.304,3.706-3.149,3.706c-0.996,0-1.86-0.513-2.388-1.23v1.055H239.09z
				 M242.298,483.556c1.436,0,2.286-1.157,2.286-2.724c0-1.568-0.85-2.739-2.286-2.739c-0.864,0-1.728,0.527-2.109,1.143v3.208
				C240.57,483.058,241.434,483.556,242.298,483.556z"/>
			<path style="fill:#FFFFFF;" d="M246.927,486.134c0.161,0.073,0.425,0.117,0.601,0.117c0.483,0,0.806-0.161,1.055-0.747
				l0.469-1.069l-2.959-7.148h1.187l2.358,5.8l2.344-5.8h1.201l-3.545,8.51c-0.425,1.025-1.143,1.421-2.08,1.435
				c-0.234,0-0.601-0.044-0.805-0.103L246.927,486.134z"/>
		</g>
	</g>
</g>
</svg>
